<svg width="60" height="60" viewBox="0 0 60 60" fill="none" xmlns="http://www.w3.org/2000/svg">
<path d="M14.1374 17.1611C16.9565 17.1611 19.4811 18.3109 21.3324 20.1845C23.1837 22.0582 24.3198 24.6132 24.3198 27.4663C24.3198 30.2768 23.1837 32.8318 21.3324 34.7055C19.4811 36.5791 16.9565 37.7289 14.1374 37.7289C11.3604 37.7289 8.8359 36.5791 6.98457 34.7055C5.13324 32.8318 3.99719 30.2768 3.99719 27.4663C3.99719 24.6132 5.13324 22.0582 6.98457 20.1845C8.8359 18.3109 11.3604 17.1611 14.1374 17.1611ZM47.0407 18.4812C45.2735 18.4812 43.7167 17.7573 42.5386 16.6075C41.4025 15.4152 40.6872 13.797 40.6872 12.0511C40.6872 10.2626 41.4025 8.64443 42.5386 7.45209C43.7167 6.30234 45.2735 5.57842 47.0407 5.57842C48.8079 5.57842 50.4067 6.30234 51.5849 7.45209C52.7209 8.64443 53.4362 10.2626 53.4362 12.0511H50.8696C50.8696 10.9865 50.4488 10.0071 49.7335 9.32576C49.0603 8.60184 48.0926 8.17601 47.0407 8.17601C45.9888 8.17601 45.0631 8.60184 44.3478 9.32576C43.6746 10.0071 43.2539 10.9865 43.2539 12.0511C43.2539 13.1157 43.6746 14.0525 44.3478 14.7764C45.0631 15.4578 45.9888 15.8836 47.0407 15.8836V18.4812ZM45.9888 34.3648C45.4839 33.5557 44.5582 32.193 43.6325 30.7878C39.3408 24.3577 34.1234 16.5649 34.1234 12.7324C34.1234 8.9851 35.4698 5.83392 37.784 3.577C40.0982 1.32009 43.338 0 47.0407 0C50.7854 0 54.0252 1.32009 56.3394 3.577C58.6115 5.83392 60 8.9851 60 12.7324C60 16.5649 54.7826 24.3577 50.4909 30.7878C49.5652 32.193 48.6395 33.5557 48.1346 34.3648L47.0407 36.0255L45.9888 34.3648ZM45.7363 29.34C46.1992 29.9787 46.5778 30.6175 47.0407 31.2988C47.5035 30.6175 47.9243 29.9787 48.345 29.34C52.4684 23.1654 57.3913 15.7559 57.3913 12.7324C57.3913 9.7516 56.3394 7.19659 54.5302 5.45067C52.7209 3.66217 50.0701 2.59759 47.0407 2.59759C44.0112 2.59759 41.4025 3.66217 39.5933 5.45067C37.784 7.19659 36.69 9.7516 36.69 12.7324C36.69 15.7559 41.655 23.1654 45.7363 29.34ZM42.6648 36.4088H37.1529C36.101 36.4088 35.1332 36.8346 34.46 37.516C33.7868 38.1973 33.324 39.1767 33.324 40.2413C33.324 41.3059 33.7868 42.2427 34.46 42.9666C35.1332 43.648 36.101 44.0738 37.1529 44.0738H51.0799C53.2679 44.0738 55.2454 44.9681 56.6339 46.4159C58.0645 47.8211 58.9481 49.8226 58.9481 52.0369C58.9481 54.2087 58.0645 56.2101 56.6339 57.6579C55.2454 59.1057 53.2679 60 51.0799 60H30.7574V57.3598H51.0799C52.5526 57.3598 53.8569 56.7637 54.8247 55.8268C55.7924 54.8474 56.3815 53.4847 56.3815 52.0369C56.3815 50.5465 55.7924 49.2264 54.8247 48.247C53.8569 47.2676 52.5526 46.6714 51.0799 46.6714H37.1529H36.9846C35.3015 46.6288 33.7447 45.9475 32.6508 44.7977C31.4726 43.6054 30.7574 42.0298 30.7574 40.2413C30.7574 38.4528 31.4726 36.8346 32.6508 35.6849C33.7447 34.5351 35.3015 33.8112 36.9846 33.7686H37.1529H42.6648V36.4088ZM0 60V40.2413H28.317V60H25.7503V42.8389H2.56662V60H0ZM19.5231 22.0156C18.1346 20.6529 16.2412 19.8013 14.1374 19.8013C12.0757 19.8013 10.1823 20.6529 8.79383 22.0156C7.44741 23.4209 6.60589 25.3371 6.60589 27.4663C6.60589 29.5529 7.44741 31.4691 8.79383 32.8744C10.1823 34.237 12.0757 35.0887 14.1374 35.0887C16.2412 35.0887 18.1346 34.237 19.5231 32.8744C20.8696 31.4691 21.7111 29.5529 21.7111 27.4663C21.7111 25.3371 20.8696 23.4209 19.5231 22.0156Z" fill="#10069F"/>
</svg>
