<svg width="120" height="33" viewBox="0 0 120 33" fill="currentColor">
    <g clip-path="url(#clip0_686_75)">
    <path d="M80.3194 32.3714L84.4794 12.5709L86.0638 32.3714H95.0391L90.8789 0.942078H81.2784L76.7994 19.8006L72.3204 0.942078H62.7199L58.5599 32.3714H67.5277L69.1269 12.5709L73.2871 32.3714H80.3194Z" fill="currentColor"/>
    <path d="M108.155 25.7704V0.942078H99.5034V32.3714H119.983V25.7704H108.155Z" fill="currentColor"/>
    <path d="M20.4789 0.942078H9.60286L0.0022583 32.3714H9.60286L10.8833 26.7147H19.2035L20.4839 32.3714H30.0795L20.4789 0.942078ZM15.0408 7.85628L17.9205 20.7426H12.1612L15.0408 7.85628Z" fill="currentColor"/>
    <path d="M53.1197 9.74247C45.1678 2.91329 32.7616 5.68819 32.6405 11.942C30.8361 0.339924 45.1209 -2.08295 53.1197 1.57077C53.3446 4.29019 53.3446 7.02304 53.1197 9.74247V9.74247Z" fill="currentColor"/>
    <path d="M46.5248 13.4445C44.5226 12.6774 41.6059 11.9879 41.6034 9.73981C41.6034 8.82699 41.9841 7.83406 43.8429 7.22955C37.4433 7.85833 35.3076 15.5057 42.3869 19.305C43.6228 19.9678 45.7635 20.6694 45.7635 22.9466C45.7635 25.6025 42.7973 26.5639 40.8372 26.5226C37.6131 26.39 34.5169 25.2466 32.0027 23.2598V30.8027C36.6796 32.9979 41.9909 33.5175 47.0167 32.2715C51.6663 30.8683 55.6829 27.0349 55.6829 22.9442C55.6805 16.2898 49.7999 14.6996 46.5248 13.4445Z" fill="currentColor"/>
    </g>
    <defs>
    <clipPath id="clip0_686_75">
    <rect width="120" height="33" fill="white"/>
    </clipPath>
    </defs>
</svg>
