<svg width="50" height="50" viewBox="0 0 50 50" fill="none" xmlns="http://www.w3.org/2000/svg">
<path d="M24.8586 0.5C31.6007 0.5 37.6904 3.19685 42.0837 7.6336C46.5204 12.0268 49.2607 18.1165 49.2607 24.8586C49.2607 31.6007 46.5204 37.6904 42.0837 42.1271C37.6904 46.5204 31.6007 49.2607 24.8586 49.2607C18.1165 49.2607 12.0268 46.5204 7.6336 42.1271C3.19685 37.6904 0.5 31.6007 0.5 24.8586C0.5 18.1165 3.19685 12.0268 7.6336 7.6336C12.0268 3.19685 18.1165 0.5 24.8586 0.5ZM37.9514 13.6798L28.6429 22.9882L26.729 21.1178L36.081 11.7659L37.9514 13.6798ZM24.8586 26.7725L13.6798 37.9514L11.7659 36.081L22.9882 24.8586L11.7659 13.6798L13.6798 11.7659L37.9514 36.081L36.081 37.9514L24.8586 26.7725ZM40.2133 9.50399C36.2985 5.58921 30.8613 3.15335 24.8586 3.15335C18.856 3.15335 13.4188 5.58921 9.50399 9.50399C5.58921 13.4188 3.15335 18.856 3.15335 24.8586C3.15335 30.8613 5.58921 36.2985 9.50399 40.2133C13.4188 44.1715 18.856 46.5639 24.8586 46.5639C30.8613 46.5639 36.2985 44.1715 40.2133 40.2133C44.128 36.2985 46.5639 30.8613 46.5639 24.8586C46.5639 18.856 44.128 13.4188 40.2133 9.50399Z" fill="#C4D600"/>
</svg>
