<svg width="16" height="20" viewBox="0 0 16 20" fill="none" xmlns="http://www.w3.org/2000/svg">
<path d="M10.4688 14.7812C10.3125 14.6562 10.25 14.4688 10.25 14.25C10.25 14.0625 10.3125 13.875 10.4688 13.75L13.4375 10.75H0.75C0.3125 10.75 0 10.4375 0 10C0 9.59375 0.3125 9.25 0.75 9.25H13.4375L10.4688 6.28125C10.1562 6 10.1562 5.53125 10.4688 5.25C10.75 4.9375 11.2188 4.9375 11.5312 5.25L15.7812 9.5C16.0625 9.78125 16.0625 10.25 15.7812 10.5312L11.5312 14.7812C11.2188 15.0938 10.75 15.0938 10.4688 14.7812Z" fill="black"/>
</svg>
