<svg width="17" height="20" viewBox="0 0 17 20" fill="none" xmlns="http://www.w3.org/2000/svg">
<path d="M6.5 5.2189C6.65625 5.37515 6.75 5.56265 6.75 5.75015C6.75 5.9689 6.65625 6.1564 6.5 6.2814L3.53125 9.25015H16.25C16.6562 9.25015 17 9.5939 17 10.0002C17 10.4377 16.6562 10.7502 16.25 10.7502H3.53125L6.5 13.7502C6.8125 14.0314 6.8125 14.5002 6.5 14.7814C6.21875 15.0939 5.75 15.0939 5.46875 14.7814L1.21875 10.5314C0.90625 10.2502 0.90625 9.7814 1.21875 9.50015L5.46875 5.25015C5.75 4.93765 6.21875 4.93765 6.5 5.2189Z" fill="black"/>
</svg>
