<svg width="20" height="20" viewBox="0 0 20 20" fill="none" xmlns="http://www.w3.org/2000/svg">
<path d="M16 9C15.5 9 15.0312 9.125 14.5938 9.28125L11.4375 3.3125C11.3438 3.125 11.1562 3 11 3H9.5C9.21875 3 9 3.25 9 3.5C9 3.78125 9.21875 4 9.5 4H10.6875L12.25 7H7.03125L5.90625 5.25C5.8125 5.09375 5.65625 5 5.5 5H3.5C3.21875 5 3 5.25 3 5.5C3 5.78125 3.21875 6 3.5 6H5.21875L6.28125 7.71875L5.4375 9.3125C5 9.125 4.5 9 4 9C1.78125 9 0 10.8125 0 13C0 15.2188 1.78125 17 4 17C6.03125 17 7.6875 15.5 7.9375 13.5H10C10.1562 13.5 10.3438 13.4062 10.4375 13.25L13.0312 8.46875L13.6875 9.75C12.6562 10.4688 12 11.6562 12 13C12 15.2188 13.7812 17 16 17C18.1875 17 20 15.2188 20 13C20 10.8125 18.1875 9 16 9ZM4 16C2.34375 16 1 14.6562 1 13C1 11.375 2.34375 10 4 10C4.3125 10 4.65625 10.0938 4.96875 10.1875L3.53125 12.7812C3.375 13.0938 3.59375 13.5 4 13.5H6.9375C6.6875 14.9375 5.46875 16 4 16ZM4.8125 12.5L6.90625 8.6875L9.375 12.5H4.8125ZM10.0938 11.75L7.6875 8H12.1562L10.0938 11.75ZM16 16C14.3438 16 13 14.6562 13 13C13 12.0312 13.4688 11.1875 14.1562 10.6562L15.5312 13.25C15.8438 13.8125 16.75 13.375 16.4375 12.7812L15.0625 10.1875C15.3438 10.0938 15.6562 10 16 10C17.625 10 19 11.375 19 13C19 14.6562 17.625 16 16 16Z" fill="black"/>
</svg>
