<svg width="18" height="20" viewBox="0 0 18 20" fill="none" xmlns="http://www.w3.org/2000/svg">
<path d="M13 13.75C13.4062 13.75 13.75 13.4375 13.75 13C13.75 12.5938 13.4062 12.25 13 12.25C12.5625 12.25 12.25 12.5938 12.25 13C12.25 13.4375 12.5625 13.75 13 13.75ZM0.5 6C0.21875 6 0 6.25 0 6.5V9.5C0 9.78125 0.21875 10 0.5 10C0.75 10 1 9.78125 1 9.5V6.5C1 6.25 0.75 6 0.5 6ZM9 2C5.09375 2 2 3.625 2 5V14C2 14.75 2.375 15.375 3 15.75V17.5C3 17.7812 3.21875 18 3.5 18C3.75 18 4 17.7812 4 17.5V16H14V17.5C14 17.7812 14.2188 18 14.5 18C14.75 18 15 17.7812 15 17.5V15.75C15.5938 15.375 16 14.75 16 14V5C16 3.625 12.875 2 9 2ZM15 14C15 14.5625 14.5312 15 14 15H4C3.4375 15 3 14.5625 3 14L2.96875 11H15V14ZM2.96875 7H8.5V10H2.96875V7ZM15 10H9.5V7H15V10ZM15 6H2.96875V5.03125C3.03125 4.53125 5.25 3 9 3C12.7188 3 14.9375 4.53125 15 5V6ZM5 13.75C5.40625 13.75 5.75 13.4375 5.75 13C5.75 12.5938 5.40625 12.25 5 12.25C4.5625 12.25 4.25 12.5938 4.25 13C4.25 13.4375 4.5625 13.75 5 13.75ZM17.5 6C17.2188 6 17 6.25 17 6.5V9.5C17 9.78125 17.2188 10 17.5 10C17.75 10 18 9.78125 18 9.5V6.5C18 6.25 17.75 6 17.5 6ZM10.5 4H7.5C7.21875 4 7 4.25 7 4.5C7 4.78125 7.21875 5 7.5 5H10.5C10.75 5 11 4.78125 11 4.5C11 4.25 10.75 4 10.5 4Z" fill="black"/>
</svg>
