<svg width="16" height="20" viewBox="0 0 16 20" fill="none" xmlns="http://www.w3.org/2000/svg">
<path d="M14.4062 8.375L13.375 4.8125C13.0625 3.75 12.0938 3 10.9688 3H5C3.875 3 2.90625 3.75 2.59375 4.8125L1.5625 8.375C0.625 8.875 0 9.875 0 11V16.5C0 16.7812 0.21875 17 0.46875 17C0.71875 17 0.9375 16.7812 0.9375 16.5V15H14.9375V16.5C14.9375 16.7812 15.1562 17 15.4062 17C15.6875 17 15.875 16.7812 15.875 16.5V11C15.9688 9.875 15.3438 8.875 14.4062 8.375ZM3.5625 5.09375C3.75 4.46875 4.3125 4 5 4H10.9688C11.6562 4 12.2188 4.46875 12.4062 5.09375L13.25 8.03125C13.1562 8.03125 13.0625 8 12.9688 8H3C2.90625 8 2.8125 8.03125 2.71875 8.03125L3.5625 5.09375ZM14.9688 13C14.9688 13.5625 14.5 14 13.9688 14H2C1.4375 14 1 13.5625 1 13V11C1 9.90625 1.875 9 3 9H12.9688C14.0625 9 14.9688 9.90625 14.9688 11V13ZM3.25 10.5C2.8125 10.5 2.5 10.8438 2.5 11.25C2.5 11.6875 2.8125 12 3.25 12C3.65625 12 3.96875 11.6875 3.96875 11.25C3.96875 10.8438 3.65625 10.5 3.25 10.5ZM12.7188 10.5C12.2812 10.5 12 10.8438 12 11.25C12 11.6875 12.3125 12 12.7188 12C13.0938 12 13.4375 11.6875 13.4375 11.25C13.4375 10.8438 13.1562 10.5 12.7188 10.5Z" fill="black"/>
</svg>
