<svg width="16" height="20" viewBox="0 0 16 20" fill="none" xmlns="http://www.w3.org/2000/svg">
<path d="M11.3125 7.34375L7 11.6562L4.65625 9.34375C4.5625 9.25 4.40625 9.25 4.3125 9.34375C4.21875 9.4375 4.21875 9.59375 4.3125 9.6875L6.8125 12.1875C6.84375 12.25 6.90625 12.25 7 12.25C7.0625 12.25 7.125 12.25 7.15625 12.1875L11.6562 7.6875C11.75 7.59375 11.75 7.4375 11.6562 7.34375C11.5625 7.25 11.4062 7.25 11.3125 7.34375ZM8 2C3.5625 2 0 5.59375 0 10C0 14.4375 3.5625 18 8 18C12.4062 18 16 14.4375 16 10C16 5.59375 12.4062 2 8 2ZM8 17.5C3.84375 17.5 0.5 14.1562 0.5 10C0.5 5.875 3.84375 2.5 8 2.5C12.125 2.5 15.5 5.875 15.5 10C15.5 14.1562 12.125 17.5 8 17.5Z" fill="black"/>
</svg>
