<svg width="17" height="20" viewBox="0 0 17 20" fill="none" xmlns="http://www.w3.org/2000/svg">
<path d="M16.6875 4.21875L14.7812 2.3125C14.5938 2.125 14.3438 2 14.0625 2H8.96875C7.84375 2 6.96875 2.90625 6.96875 4V12C7 13.125 7.875 14 9 14H15C16.0938 14 17 13.125 17 12V4.9375C17 4.65625 16.875 4.40625 16.6875 4.21875ZM15.5 12C15.5 12.2812 15.25 12.5 15 12.5H8.96875C8.6875 12.5 8.46875 12.2812 8.46875 12V4.03125C8.46875 3.75 8.6875 3.53125 8.96875 3.53125H12.9688L13 5C13 5.5625 13.4375 6 14 6H15.4688V12H15.5ZM9.5 16C9.5 16.2812 9.25 16.5 9 16.5H2.96875C2.6875 16.5 2.46875 16.2812 2.46875 16V8.03125C2.46875 7.75 2.71875 7.53125 2.96875 7.53125H6V6H2.96875C1.875 6 0.96875 6.90625 0.96875 8L1 16C1 17.125 1.875 18 3 18H9C10.0938 18 11 17.125 11 16V15H9.5V16Z" fill="black"/>
</svg>
