<svg width="18" height="20" viewBox="0 0 18 20" fill="none" xmlns="http://www.w3.org/2000/svg">
<path d="M17.8125 9.625L9.34375 2.125C9.21875 2.0625 9.09375 2.03125 9 2.03125C8.875 2.03125 8.75 2.0625 8.65625 2.125L0.15625 9.625C0.03125 9.75 0 9.875 0 10C0 10.2812 0.21875 10.5 0.5 10.5C0.59375 10.5 0.71875 10.4688 0.8125 10.375L2 9.34375V15.5C2 16.875 3.09375 17.9688 4.5 17.9688H13.4688C14.8438 17.9688 15.9688 16.8438 15.9688 15.5V9.34375L17.1562 10.375C17.25 10.4688 17.375 10.5 17.4688 10.5C17.7188 10.5 17.9688 10.2812 17.9688 10.0312C17.9688 9.875 17.9375 9.75 17.8125 9.625ZM10.5 17H7.5V12H10.5V17ZM14.9688 8.5V15.5C14.9688 16.3438 14.2812 17 13.4688 17H11.4688V11.8438C11.5 11.375 11.125 11 10.6562 11H7.34375C6.875 11 6.5 11.375 6.5 11.8438V17H4.5C3.65625 17 3 16.3438 3 15.5V8.5C3 8.5 2.96875 8.5 2.96875 8.46875L9 3.1875L15 8.46875C15 8.5 14.9688 8.5 14.9688 8.5Z" fill="black"/>
</svg>
