<svg width="15" height="20" viewBox="0 0 15 20" fill="none" xmlns="http://www.w3.org/2000/svg">
<path d="M6.50004 3H9.37504L6.12504 6.6875C5.96879 6.84375 5.93754 7.03125 6.03129 7.21875C6.12504 7.40625 6.28129 7.5 6.50004 7.5H10.4688C10.7188 7.5 10.9375 7.28125 10.9375 7C10.9375 6.75 10.7188 6.5 10.4688 6.5H7.59379L10.8438 2.84375C11 2.6875 11.0313 2.5 10.9375 2.3125C10.8438 2.125 10.6875 2 10.4688 2H6.50004C6.21879 2 6.00004 2.25 6.00004 2.5C6.00004 2.78125 6.21879 3 6.50004 3ZM14.4688 14.5H11.5L14.8438 10.3125C14.9688 10.1875 15 9.96875 14.9063 9.8125C14.8438 9.625 14.6875 9.5 14.4688 9.5H10.5C10.2188 9.5 10 9.75 10 10C10 10.2812 10.2188 10.5 10.5 10.5H13.4375L10.0938 14.6875C9.96879 14.8438 9.93754 15.0625 10.0313 15.2188C10.125 15.4062 10.2813 15.5 10.4688 15.5H14.4375C14.7188 15.5 14.9063 15.2812 14.9063 15C14.9063 14.75 14.75 14.5 14.4688 14.5ZM7.50004 9.5H2.50004C2.21879 9.5 2.00004 9.75 2.00004 10C2.00004 10.2812 2.21879 10.5 2.46879 10.5H6.40629L1.06254 17.1875C0.937538 17.3438 0.937538 17.5625 1.00004 17.7188C1.12504 17.9062 1.28129 18 1.50004 18H6.96879C7.21879 18 7.43754 17.7812 7.43754 17.5C7.43754 17.25 7.25004 17 7.00004 17H2.53129L7.87504 10.3125C8.00004 10.1875 8.03129 9.96875 7.93754 9.8125C7.84379 9.625 7.68754 9.5 7.50004 9.5Z" fill="black"/>
</svg>
