<svg width="20" height="20" viewBox="0 0 20 20" fill="none" xmlns="http://www.w3.org/2000/svg">
<path d="M15.5 11.25L17.75 13.5L13.8438 17.4062C13.75 17.5 13.6562 17.5312 13.5625 17.5625L11.3125 18C11.125 18.0625 10.9375 17.875 11 17.6875L11.4375 15.4375C11.4688 15.3438 11.5 15.25 11.5938 15.1562L15.5 11.25ZM19.6562 10L19 9.34375C18.5625 8.90625 17.8438 8.90625 17.4062 9.34375L16.2188 10.5312L18.4688 12.7812L19.6562 11.5938C20.0938 11.1562 20.0938 10.4375 19.6562 10ZM11.25 18H11.2812C11.25 18.0312 11.2188 18 11.1875 18C11.2188 18 11.25 18 11.25 18ZM3 6C3 3.8125 4.78125 2 6.96875 2C9.125 2 10.9688 3.8125 10.9688 6C10.9688 8.21875 9.15625 10 6.96875 10C4.75 10 3 8.21875 3 6ZM4.5 6C4.5 7.40625 5.59375 8.5 7 8.5C8.375 8.5 9.5 7.40625 9.5 6C9.5 4.625 8.375 3.5 7 3.5C5.59375 3.5 4.5 4.625 4.5 6ZM10.1875 16.5H1.53125C1.75 14.5312 3.4375 13 5.5 13H8.5C9.53125 13 10.5 13.4375 11.2188 14.125L12.2812 13.0625C11.3125 12.0938 9.96875 11.5 8.5 11.5H5.5C2.4375 11.5 0 13.9688 0 17C0 17.5625 0.4375 18 1 18H10.0312C9.96875 17.8438 9.96875 17.6562 10 17.4688L10.1875 16.5Z" fill="black"/>
</svg>
