<svg width="20" height="20" viewBox="0 0 20 20" fill="none" xmlns="http://www.w3.org/2000/svg">
<path d="M9.96875 12C11.7812 12 13.2188 10.5625 13.2188 8.75C13.2188 6.96875 11.75 5.5 9.96875 5.5C8.1875 5.5 6.75 6.96875 6.75 8.75C6.71875 10.5625 8.1875 12 9.96875 12ZM9.96875 7C10.9375 7 11.7188 7.8125 11.7188 8.75C11.7188 9.71875 10.9375 10.5 9.96875 10.5C9.03125 10.5 8.21875 9.71875 8.21875 8.75C8.21875 7.8125 9.03125 7 9.96875 7ZM16 7C17.375 7 18.5 5.90625 18.5 4.5C18.5 3.125 17.375 2 16 2C14.5938 2 13.5 3.125 13.5 4.5C13.5 5.90625 14.5938 7 16 7ZM11.5312 13H8.4375C5.96875 13 4 14.875 4 17.1875C4 17.6562 4.375 18 4.875 18H15.0938C15.5938 18 16 17.6562 16 17.1875C16 14.875 14 13 11.5312 13ZM5.5625 16.5C5.875 15.375 7.03125 14.5 8.40625 14.5H11.5312C12.9062 14.5 14.0625 15.375 14.4062 16.5H5.5625ZM17.2188 8H15.3125C14.9062 8 14.5312 8.125 14.1875 8.28125C14.1875 8.4375 14.2188 8.59375 14.2188 8.75C14.2188 9.8125 13.8438 10.7812 13.1875 11.5H19.4375C19.75 11.5 20 11.25 20 10.9375C20 9.3125 18.75 8 17.2188 8ZM5.71875 8.75C5.71875 8.59375 5.75 8.4375 5.78125 8.28125C5.4375 8.09375 5.0625 8 4.65625 8H2.75C1.21875 8 0 9.3125 0 10.9375C0 11.25 0.21875 11.5 0.53125 11.5H6.78125C6.125 10.7812 5.71875 9.8125 5.71875 8.75ZM4 7C5.375 7 6.5 5.90625 6.5 4.5C6.5 3.125 5.375 2 4 2C2.59375 2 1.5 3.125 1.5 4.5C1.5 5.90625 2.59375 7 4 7Z" fill="black"/>
</svg>
